<?xml version="1.0" standalone="no"?>
<!DOCTYPE svg PUBLIC "-//W3C//DTD SVG 20010904//EN"
 "http://www.w3.org/TR/2001/REC-SVG-20010904/DTD/svg10.dtd">
<svg version="1.0" xmlns="http://www.w3.org/2000/svg"
 width="250.000000pt" height="250.000000pt" viewBox="0 0 250.000000 250.000000"
 preserveAspectRatio="xMidYMid meet">
<metadata>
Created by potrace 1.14, written by Peter Selinger 2001-2017
</metadata>
<g transform="translate(0.000000,250.000000) scale(0.100000,-0.100000)"
fill="#000000" stroke="none">
<path d="M596 1942 c-3 -2 -29 -5 -58 -7 -64 -3 -146 -24 -155 -38 -18 -29 8
-153 48 -224 41 -73 65 -104 87 -109 12 -4 22 -10 22 -14 0 -4 7 -7 16 -6 9 0
19 -5 21 -12 3 -7 -1 -10 -11 -6 -9 3 -16 2 -16 -3 0 -11 63 -73 75 -73 4 0
16 -7 26 -16 20 -18 74 -25 109 -12 22 7 23 7 8 -6 -24 -18 -22 -31 5 -33 34
-3 121 -5 127 -3 11 4 108 11 158 11 l53 0 -24 22 c-46 41 -67 57 -77 57 -5 0
-13 8 -19 18 -5 9 -12 16 -16 14 -3 -2 -25 13 -47 32 -41 36 -41 49 0 20 12
-8 22 -13 22 -10 0 5 177 -91 190 -104 3 -3 15 -10 27 -17 19 -11 21 -10 18
10 -3 12 -7 39 -9 59 -6 44 -23 110 -38 147 -6 14 -12 28 -13 31 -7 30 -57
104 -92 137 -48 46 -163 106 -228 119 -22 4 -47 9 -55 11 -25 6 -150 10 -154
5z"/>
<path d="M1467 1940 c-16 -5 -35 -14 -43 -21 -8 -6 -14 -8 -14 -5 0 7 -61 -36
-88 -61 -7 -7 -19 -27 -27 -45 -8 -18 -14 -27 -15 -19 0 11 -5 9 -21 -5 -30
-27 -49 -68 -49 -107 0 -18 -5 -38 -12 -45 -7 -7 -9 -12 -6 -12 4 0 3 -12 -1
-28 -5 -15 -4 -38 1 -52 11 -28 19 -68 22 -115 3 -36 16 -35 36 2 8 16 25 42
38 60 12 17 22 35 22 41 0 5 8 16 18 23 15 13 16 12 3 -3 -7 -10 -11 -18 -8
-18 3 0 -5 -26 -19 -57 -24 -55 -54 -121 -60 -133 -2 -4 8 -6 22 -6 13 0 24 4
24 10 0 5 3 7 6 3 3 -3 25 1 47 10 23 8 47 16 52 17 20 3 90 51 112 76 50 55
76 130 79 222 1 47 -2 104 -6 125 -5 21 -11 50 -14 65 -13 75 -40 96 -99 78z"/>
<path d="M1526 1341 c-6 -10 -98 -34 -131 -35 -11 -1 -24 -4 -30 -7 -11 -7
-234 -3 -280 4 -16 3 -48 9 -70 14 -60 12 -216 8 -250 -7 -16 -7 -32 -14 -35
-16 -3 -1 -15 -5 -27 -9 -13 -4 -20 -11 -17 -16 2 -5 -7 -11 -21 -15 -14 -3
-25 -11 -25 -16 0 -5 -10 -18 -22 -28 -42 -33 -13 -30 56 6 52 28 81 37 122
38 30 0 54 4 54 7 0 8 47 4 210 -16 76 -10 190 -12 195 -5 2 4 17 6 32 5 15
-1 45 4 66 11 20 7 41 14 45 15 41 9 142 59 142 70 0 12 -7 12 -14 0z"/>
<path d="M1040 1175 c-9 -11 -22 -14 -48 -9 -71 14 -229 8 -254 -8 -22 -15
-23 -18 -21 -159 1 -133 6 -195 16 -206 12 -11 47 -10 58 3 7 8 13 39 14 69 0
30 3 56 6 59 2 2 36 6 74 7 91 3 102 6 107 33 7 35 -14 45 -101 47 -51 1 -81
6 -82 13 0 6 -2 21 -5 34 -5 29 21 39 106 37 36 -1 75 2 88 7 26 9 24 20 27
-142 3 -179 2 -169 30 -176 33 -8 55 11 55 47 0 15 5 31 10 34 6 3 10 -1 10
-10 0 -9 5 -13 10 -10 6 3 10 0 10 -8 0 -7 19 -24 42 -37 57 -32 122 -31 175
4 38 26 79 89 68 106 -3 5 -2 11 3 13 4 3 9 -19 10 -50 3 -63 15 -93 40 -93
35 0 42 16 46 95 2 58 8 81 20 90 8 7 13 14 10 17 -6 7 57 32 71 28 6 -1 41
-3 79 -4 62 -1 70 -3 77 -23 8 -22 6 -23 -34 -24 -62 -1 -89 -7 -117 -28 -21
-15 -25 -27 -25 -66 0 -40 4 -51 25 -67 28 -21 92 -26 129 -11 17 7 34 6 53
-1 47 -18 60 6 60 112 -1 145 -35 185 -153 177 -35 -2 -74 -6 -86 -9 -13 -3
-25 -1 -28 5 -10 14 -42 11 -49 -6 -6 -17 -36 -21 -36 -5 0 6 -7 10 -15 10 -8
0 -15 5 -15 10 0 6 -11 3 -25 -6 -14 -9 -23 -20 -20 -24 3 -5 2 -11 -3 -14 -4
-2 -7 -23 -5 -45 1 -23 -2 -41 -8 -41 -5 0 -9 11 -9 24 0 29 -49 81 -94 100
-52 22 -152 0 -178 -39 -3 -5 -15 -20 -26 -33 l-20 -22 -1 91 c-1 57 -6 95
-14 103 -19 17 -43 18 -57 1z m303 -204 c16 -32 6 -87 -19 -106 -39 -30 -110
-11 -117 31 -1 10 -6 24 -10 31 -4 6 -3 14 3 18 6 4 8 9 6 13 -6 9 15 34 39
48 28 16 82 -3 98 -35z m456 -70 c9 -6 10 -11 2 -15 -6 -4 -9 -11 -6 -16 7
-12 -35 -40 -60 -40 -24 1 -67 30 -44 30 11 0 12 2 0 9 -10 7 -8 12 10 25 25
17 76 21 98 7z"/>
<path d="M576 1155 c-3 -8 -1 -15 3 -15 5 0 11 7 15 15 3 8 1 15 -3 15 -5 0
-11 -7 -15 -15z"/>
<path d="M1296 721 c-8 -15 -6 -180 2 -185 13 -8 36 20 28 33 -4 6 2 15 13 20
15 8 23 7 35 -5 9 -8 16 -19 16 -24 0 -12 28 -20 46 -13 15 6 15 8 -2 20 -10
7 -14 13 -8 13 5 0 3 4 -4 8 -10 7 -9 14 6 33 10 13 18 29 17 34 -3 29 -18 55
-37 61 -28 9 -108 12 -112 5z m100 -42 c23 -19 9 -43 -28 -47 -28 -2 -36 1
-41 17 -2 10 -1 23 4 28 13 13 51 14 65 2z"/>
<path d="M1758 705 c-3 -14 -1 -25 5 -25 7 0 7 -4 -1 -12 -14 -14 -16 -32 -2
-23 6 4 7 -2 2 -17 -9 -25 -1 -84 11 -80 4 1 11 2 16 2 5 0 8 16 6 36 -2 39
17 66 40 58 10 -4 15 -20 15 -49 0 -53 25 -80 39 -44 5 13 10 19 10 12 1 -18
40 -36 59 -27 9 4 28 8 42 8 22 1 25 5 25 43 1 23 -2 51 -6 61 -14 36 -109 41
-109 6 0 -12 7 -14 30 -9 20 4 30 3 30 -5 0 -6 4 -9 8 -6 5 3 9 -1 9 -9 0 -8
-4 -12 -9 -9 -18 11 -77 -7 -81 -24 -3 -9 -5 -1 -6 18 -2 51 -15 65 -58 65
-27 0 -38 4 -39 15 -2 35 -5 40 -18 40 -7 0 -16 -11 -18 -25z m227 -114 c3 -5
-2 -16 -10 -25 -13 -13 -19 -13 -30 -3 -12 10 -11 14 3 25 19 14 29 15 37 3z"/>
<path d="M1676 678 c-9 -5 -16 -6 -16 -2 0 4 -9 -3 -20 -16 -11 -13 -20 -27
-20 -32 0 -5 -11 3 -24 19 -19 21 -33 28 -63 28 -48 0 -74 -23 -76 -68 -2 -25
4 -36 29 -54 17 -12 37 -21 45 -19 39 7 58 20 73 49 12 24 16 27 16 12 0 -11
4 -26 9 -33 12 -19 72 -30 99 -19 35 16 26 30 -17 24 -34 -4 -40 -2 -50 20
-18 40 2 67 45 58 24 -4 34 -2 34 7 0 19 -44 37 -64 26z m-122 -34 c19 -7 21
-57 4 -71 -12 -10 -45 -10 -54 0 -3 3 -7 16 -10 30 -6 34 24 55 60 41z"/>
</g>
</svg>
